<?xml version="1.0" standalone="no"?>
<!DOCTYPE svg PUBLIC "-//W3C//DTD SVG 20010904//EN"
 "http://www.w3.org/TR/2001/REC-SVG-20010904/DTD/svg10.dtd">
<svg version="1.0" xmlns="http://www.w3.org/2000/svg"
 width="753.000000pt" height="874.000000pt" viewBox="0 0 753.000000 874.000000"
 preserveAspectRatio="xMidYMid meet">

<g transform="translate(0.000000,874.000000) scale(0.100000,-0.100000)"
fill="#000000" stroke="none">
<path d="M257 5112 l-257 -257 0 -2428 0 -2427 2905 0 c1598 0 2905 3 2905 8
0 4 -101 218 -225 477 l-225 470 -2415 3 -2415 2 0 2205 c0 1213 -3 2205 -8
2205 -4 0 -123 -116 -265 -258z"/>
<path d="M4880 3945 l0 -215 35 0 35 0 0 215 0 215 -35 0 -35 0 0 -215z"/>
<path d="M4011 3836 l-22 -23 148 -142 148 -141 25 26 25 25 -142 140 c-79 76
-147 139 -151 139 -5 0 -19 -11 -31 -24z"/>
<path d="M5601 3700 c-67 -62 -121 -115 -121 -119 0 -4 10 -17 23 -29 l22 -21
100 90 c55 50 111 102 125 115 l25 24 -27 26 -26 26 -121 -112z"/>
<path d="M4776 2923 c14 -37 231 -619 481 -1292 250 -673 460 -1237 466 -1253
12 -28 20 -12 221 412 l210 441 37 -38 c20 -21 241 -250 490 -508 250 -259
457 -473 461 -475 7 -5 378 327 378 339 0 3 -214 239 -475 525 -261 285 -475
521 -475 525 0 3 162 95 360 205 198 109 360 201 360 205 0 4 -1958 762 -2531
979 -5 2 3 -27 17 -65z m1239 -493 c605 -233 1103 -426 1108 -429 4 -4 -146
-92 -333 -196 l-340 -189 38 -40 c162 -170 932 -1019 930 -1025 -6 -15 -256
-241 -267 -241 -5 0 -236 234 -512 520 -480 497 -504 520 -515 498 -7 -13 -95
-197 -196 -409 -109 -230 -186 -382 -190 -374 -8 13 -847 2268 -856 2299 -4
15 -1 18 14 14 10 -3 514 -196 1119 -428z"/>
<path d="M3544 2956 c-3 -8 -4 -25 -2 -38 l3 -23 238 -3 237 -2 0 40 0 40
-235 0 c-195 0 -237 -2 -241 -14z"/>
<path d="M3993 2265 c-57 -62 -103 -117 -103 -122 0 -5 10 -19 23 -31 l23 -22
70 78 c39 42 87 96 109 120 l38 43 -23 24 c-13 14 -26 25 -29 24 -3 0 -52 -52
-108 -114z"/>
</g>
</svg>
